<svg version="1.1" viewBox="0.0 0.0 621.8897637795276 100.07349081364829" fill="none" stroke="none" stroke-linecap="square" stroke-miterlimit="10" xmlns:xlink="http://www.w3.org/1999/xlink" xmlns="http://www.w3.org/2000/svg"><clipPath id="p.0"><path d="m0 0l621.8898 0l0 100.073494l-621.8898 0l0 -100.073494z" clip-rule="nonzero"/></clipPath><g clip-path="url(#p.0)"><path fill="#000000" fill-opacity="0.0" d="m0 0l621.8898 0l0 100.073494l-621.8898 0z" fill-rule="evenodd"/><path fill="#b673ff" d="m23.471865 4.135599l23.180056 31.856173l72.39993 -31.856173z" fill-rule="evenodd"/><g filter="url(#shadowFilter-p.1)"><use xlink:href="#p.1" transform="matrix(1.0 0.0 0.0 1.0 10.000000000000002 0.0)"/></g><defs><filter id="shadowFilter-p.1" filterUnits="userSpaceOnUse"><feGaussianBlur in="SourceAlpha" stdDeviation="2.5" result="blur"/><feComponentTransfer in="blur" color-interpolation-filters="sRGB"><feFuncR type="linear" slope="0" intercept="0.2627451"/><feFuncG type="linear" slope="0" intercept="0.2627451"/><feFuncB type="linear" slope="0" intercept="0.2627451"/><feFuncA type="linear" slope="0.7" intercept="0"/></feComponentTransfer></filter></defs><g id="p.1"><path fill="#36d6d8" d="m3.4452271 36.485935l19.085163 -32.562378l97.21708 0.13313079z" fill-rule="evenodd"/></g><path fill="#000000" fill-opacity="0.0" d="m112.53543 12.422572l524.6299 0l0 83.2756l-524.6299 0z" fill-rule="evenodd"/><path fill="#666666" d="m152.6448 88.62036l-11.046875 -26.406246q-0.578125 -1.53125 -1.59375 -4.359375q-1.0 -2.828125 -2.15625 -6.375q-1.140625 -3.5625 -2.34375 -7.15625q-1.203125 -3.609375 -2.21875 -6.671875q-1.0 -3.078125 -1.578125 -4.953125q-0.578125 -1.875 -0.578125 -1.875l-4.40625 -4.796875l0.578125 -4.609375l5.953125 0l10.75 25.921875q0.671875 1.640625 1.671875 4.5625q1.015625 2.921875 2.15625 6.4375q1.15625 3.5 2.3125 6.999996q1.15625 3.5 2.109375 6.484375q0.96875 2.96875 1.578125 4.75q0.625 1.78125 0.625 1.78125l4.703125 5.65625l-0.765625 4.609375l-5.75 0zm-26.984375 0l0 -65.65625q0 -1.546875 1.640625 -1.546875l6.140625 1.546875l-1.0625 11.21875q0.203125 1.34375 0.34375 3.75q0.140625 2.40625 0.234375 5.328125q0.09375 2.921875 0.1875 6.09375q0.109375 3.171875 0.203125 6.046875q0.09375 2.875 0.09375 5.09375q0 2.203125 0 3.265625l0 23.328121q0 0.765625 -0.34375 1.0625q-0.328125 0.28125 -1.921875 0.375q-1.578125 0.09375 -5.515625 0.09375zm32.734375 0l-6.140625 -1.53125l0.859375 -12.875q-0.1875 -1.4375 -0.28125 -3.78125q-0.09375 -2.359375 -0.1875 -5.1875q-0.09375 -2.8281212 -0.203125 -5.796871q-0.09375 -2.984375 -0.140625 -5.71875q-0.046875 -2.734375 -0.046875 -4.84375q0 -2.125 0 -3.28125l0 -22.640625q0 -0.78125 0.328125 -1.0625q0.34375 -0.296875 1.96875 -0.390625q1.640625 -0.09375 5.484375 -0.09375l0 65.671875q0 1.53125 -1.640625 1.53125zm23.905228 0.953125q-3.265625 0 -6.09375 -0.90625q-2.828125 -0.90625 -4.890625 -3.296875q-2.0625 -2.40625 -3.171875 -6.828125q-1.109375 -4.421875 -1.109375 -11.421875q0 -9.031246 1.4375 -14.499996q1.453125 -5.46875 3.84375 -8.25q2.40625 -2.796875 5.46875 -3.75q3.078125 -0.953125 6.25 -0.953125q6.046875 0 9.109375 3.84375q3.078125 3.828125 3.078125 11.609375q0 3.15625 -0.25 6.53125q-0.234375 3.3593712 -0.90625 5.937496q-3.265625 0.671875 -7.296875 0.96875q-4.03125 0.28125 -7.6875 0.4375q-3.640625 0.140625 -6.0 0.140625q-2.34375 0 -2.34375 0l0.109375 -6.343746q0 0 1.8125 0.046875q1.828125 0.046875 4.46875 0q2.640625 -0.046875 5.375 -0.28125q2.734375 -0.234375 4.65625 -0.8125q0.28125 -1.34375 0.375 -2.875q0.109375 -1.546875 0.109375 -2.890625q-0.09375 -5.1875 -1.203125 -7.34375q-1.109375 -2.15625 -4.265625 -2.15625q-1.640625 0 -3.125 0.921875q-1.484375 0.90625 -2.640625 3.15625q-1.15625 2.25 -1.78125 6.1875q-0.625 3.9375 -0.625 10.078121q0 4.515625 0.53125 7.5q0.53125 2.96875 1.625 4.609375q1.109375 1.625 2.78125 2.34375q1.6875 0.71875 4.09375 0.71875q2.875 0 5.703125 -0.765625q2.84375 -0.765625 5.140625 -2.203125q0.484375 1.140625 0.625 2.640625q0.140625 1.484375 0.140625 2.640625q0 1.4375 -1.828125 2.6875q-1.8125 1.234375 -4.84375 1.90625q-3.015625 0.671875 -6.671875 0.671875zm32.169357 0q-3.84375 0 -6.6875 -0.765625q-2.828125 -0.765625 -4.546875 -2.109375l0 -64.984375q0 -1.828125 0.625 -2.59375q0.625 -0.765625 2.296875 -0.90625q1.6875 -0.15625 4.84375 -0.15625l0 24.96875q2.015625 -1.546875 4.46875 -2.453125q2.453125 -0.90625 5.8125 -0.90625q3.84375 0 6.421875 1.828125q2.59375 1.8125 3.9375 5.9375q1.34375 4.125 1.34375 11.140625q0 8.249996 -1.109375 13.921871q-1.09375 5.65625 -3.0625 9.015625q-1.96875 3.359375 -4.375 5.140625q-2.390625 1.78125 -4.984375 2.34375q-2.59375 0.578125 -4.984375 0.578125zm1.046875 -6.90625q1.25 0 2.78125 -0.765625q1.546875 -0.765625 2.890625 -3.0625q1.34375 -2.3125 2.25 -6.78125q0.90625 -4.46875 0.90625 -11.749996q0 -5.1875 -0.765625 -8.15625q-0.765625 -2.984375 -2.15625 -4.234375q-1.390625 -1.25 -3.6875 -1.25q-1.828125 0 -3.515625 0.625q-1.671875 0.625 -3.21875 2.0625l0 32.062496q0.671875 0.484375 1.734375 0.875q1.0625 0.375 2.78125 0.375zm38.7881 6.90625q-5.765625 0 -8.84375 -1.71875q-3.0625 -1.734375 -4.265625 -5.28125q-1.203125 -3.546875 -1.203125 -8.921875l0 -31.499996q0 -0.765625 0.28125 -1.046875q0.296875 -0.296875 1.96875 -0.390625q1.6875 -0.09375 5.71875 -0.09375l0 33.70312q0 3.0625 0.53125 4.9375q0.53125 1.875 1.921875 2.6875q1.390625 0.8125 3.984375 0.8125q1.34375 0 3.1718903 -0.375q1.828125 -0.390625 3.359375 -1.34375l0 -38.89062q0 -0.765625 0.328125 -1.046875q0.34375 -0.296875 1.921875 -0.390625q1.59375 -0.09375 5.53125 -0.09375l0 45.499996q-2.796875 1.546875 -6.640625 2.5q-3.828125 0.953125 -7.7656403 0.953125zm23.140854 -0.953125l0 -67.015625q0 -1.8125 0.609375 -2.53125q0.625 -0.71875 2.359375 -0.859375q1.734375 -0.15625 4.796875 -0.15625l0 69.03125q0 0.765625 -0.34375 1.0625q-0.328125 0.28125 -1.90625 0.375q-1.578125 0.09375 -5.515625 0.09375zm30.326752 0.953125q-3.265625 0 -6.09375 -0.90625q-2.828125 -0.90625 -4.890625 -3.296875q-2.0625 -2.40625 -3.171875 -6.828125q-1.109375 -4.421875 -1.109375 -11.421875q0 -9.031246 1.4375 -14.499996q1.453125 -5.46875 3.84375 -8.25q2.40625 -2.796875 5.46875 -3.75q3.078125 -0.953125 6.25 -0.953125q6.046875 0 9.109375 3.84375q3.078125 3.828125 3.078125 11.609375q0 3.15625 -0.25 6.53125q-0.234375 3.3593712 -0.90625 5.937496q-3.265625 0.671875 -7.296875 0.96875q-4.03125 0.28125 -7.6875 0.4375q-3.640625 0.140625 -6.0 0.140625q-2.34375 0 -2.34375 0l0.109375 -6.343746q0 0 1.8125 0.046875q1.828125 0.046875 4.46875 0q2.640625 -0.046875 5.375 -0.28125q2.734375 -0.234375 4.65625 -0.8125q0.28125 -1.34375 0.375 -2.875q0.109375 -1.546875 0.109375 -2.890625q-0.09375 -5.1875 -1.203125 -7.34375q-1.109375 -2.15625 -4.265625 -2.15625q-1.640625 0 -3.125 0.921875q-1.484375 0.90625 -2.640625 3.15625q-1.15625 2.25 -1.78125 6.1875q-0.625 3.9375 -0.625 10.078121q0 4.515625 0.53125 7.5q0.53125 2.96875 1.625 4.609375q1.109375 1.625 2.78125 2.34375q1.6875 0.71875 4.09375 0.71875q2.875 0 5.703125 -0.765625q2.84375 -0.765625 5.140625 -2.203125q0.484375 1.140625 0.625 2.640625q0.140625 1.484375 0.140625 2.640625q0 1.4375 -1.828125 2.6875q-1.8125 1.234375 -4.84375 1.90625q-3.015625 0.671875 -6.671875 0.671875zm18.240845 -0.953125l14.40625 -26.499996l3.84375 -2.78125q0 0 0.90625 -2.015625q0.90625 -2.015625 2.25 -4.890625q1.34375 -2.890625 2.59375 -5.28125l2.984375 -5.1875q0.28125 -0.671875 0.75 -0.953125q0.484375 -0.296875 2.171875 -0.34375q1.6875 -0.046875 5.71875 -0.046875l-14.125 25.624996l-2.875 0.96875q0 0 -0.671875 1.484375q-0.671875 1.484375 -1.6875 3.84375q-1.0 2.34375 -2.25 4.984375q-1.25 2.640625 -2.390625 4.859375l-2.796875 4.703125q-0.28125 0.765625 -0.953125 1.0625q-0.671875 0.28125 -2.453125 0.375q-1.765625 0.09375 -5.421875 0.09375zm27.453125 0l-3.546875 -6.34375q-1.25 -2.109375 -2.453125 -4.6875q-1.1875 -2.59375 -2.296875 -4.953125q-1.109375 -2.359375 -1.78125 -3.84375q-0.671875 -1.484375 -0.671875 -1.484375l-1.71875 -1.15625l-13.0625 -24.281246q-0.28125 -0.578125 -0.046875 -0.8125q0.234375 -0.25 2.0625 -0.34375q1.828125 -0.09375 6.140625 -0.09375l3.5625 6.53125q1.234375 2.390625 2.578125 5.234375q1.359375 2.828125 2.21875 4.890625q0.859375 2.0625 0.859375 2.0625l2.875 1.640625l13.921875 25.812496q0.484375 0.875 0.234375 1.265625q-0.234375 0.375 -2.15625 0.46875q-1.90625 0.09375 -6.71875 0.09375zm40.715485 0.953125q-6.625 0 -9.65625 -1.859375q-3.015625 -1.875 -3.015625 -3.890625q0 -1.15625 0.46875 -2.734375q0.484375 -1.59375 1.546875 -2.84375q1.53125 1.453125 3.96875 2.40625q2.453125 0.953125 5.90625 0.953125q5.09375 0 7.25 -2.6875q2.171875 -2.6875 2.171875 -7.09375q0 -3.265625 -1.203125 -6.046875q-1.203125 -2.7812462 -4.375 -6.437496l-9.59375 -11.234375q-3.265625 -4.03125 -4.65625 -7.234375q-1.390625 -3.21875 -1.390625 -6.6875q0 -6.046875 4.265625 -9.875q4.28125 -3.84375 12.25 -3.84375q6.8125 0 9.6875 1.390625q2.875 1.390625 2.875 3.40625q0 0.953125 -0.484375 2.15625q-0.46875 1.203125 -1.4375 2.265625q-0.953125 -0.671875 -3.5 -1.484375q-2.546875 -0.828125 -5.90625 -0.828125q-4.3125 0 -6.859375 1.734375q-2.546875 1.71875 -2.546875 4.890625q0 2.59375 1.203125 4.75q1.203125 2.15625 3.3125 4.75l10.375 11.8125q3.734375 4.421875 5.078125 8.078125q1.34375 3.6406212 1.34375 8.140621q0 4.8125 -1.59375 8.9375q-1.578125 4.125 -5.28125 6.625q-3.6875 2.484375 -10.203125 2.484375zm36.758606 0q-4.03125 0 -6.0 -1.765625q-1.96875 -1.78125 -2.546875 -5.0q-0.5625 -3.21875 -0.5625 -7.53125l0 -27.937496l-6.53125 0q0 -3.078125 0.046875 -4.46875q0.046875 -1.390625 0.421875 -1.8125q0.390625 -0.4375 1.15625 -0.4375l4.90625 0l0 -14.59375q0 -1.4375 0.609375 -1.96875q0.625 -0.53125 2.296875 -0.625q1.6875 -0.09375 4.859375 -0.09375l0 17.28125l9.796875 0q0 2.96875 -0.046875 4.421875q-0.046875 1.4375 -0.390625 1.875q-0.328125 0.421875 -1.09375 0.421875l-8.265625 0l0 27.937496q0 2.015625 0.140625 3.796875q0.15625 1.765625 0.875 2.78125q0.71875 1.0 2.4375 1.0q1.640625 0 2.890625 -0.328125q1.25 -0.34375 2.6875 -1.109375q0.1875 0.765625 0.375 1.734375q0.203125 0.953125 0.203125 2.203125q0 1.734375 -1.296875 2.640625q-1.296875 0.90625 -3.171875 1.234375q-1.875 0.34375 -3.796875 0.34375zm14.779724 -0.953125l0 -44.64062q2.796875 -2.015625 6.15625 -3.15625q3.359375 -1.15625 6.90625 -1.15625q3.75 0 5.234375 1.015625q1.484375 1.0 1.484375 3.015625q0 0.765625 -0.1875 2.0625q-0.1875 1.296875 -0.671875 2.546875q-1.0625 -0.578125 -2.21875 -0.859375q-1.140625 -0.296875 -2.390625 -0.296875q-1.640625 0 -3.328125 0.53125q-1.671875 0.515625 -3.015625 1.578125l-0.09375 37.82812q0 0.765625 -0.34375 1.0625q-0.328125 0.28125 -1.96875 0.375q-1.625 0.09375 -5.5625 0.09375zm37.156128 0.953125q-3.265625 0 -6.09375 -0.90625q-2.828125 -0.90625 -4.890625 -3.296875q-2.0625 -2.40625 -3.171875 -6.828125q-1.109375 -4.421875 -1.109375 -11.421875q0 -9.031246 1.4375 -14.499996q1.453125 -5.46875 3.84375 -8.25q2.40625 -2.796875 5.46875 -3.75q3.078125 -0.953125 6.25 -0.953125q6.046875 0 9.109375 3.84375q3.078125 3.828125 3.078125 11.609375q0 3.15625 -0.25 6.53125q-0.234375 3.3593712 -0.90625 5.937496q-3.265625 0.671875 -7.296875 0.96875q-4.03125 0.28125 -7.6875 0.4375q-3.640625 0.140625 -6.0 0.140625q-2.34375 0 -2.34375 0l0.109375 -6.343746q0 0 1.8125 0.046875q1.828125 0.046875 4.46875 0q2.640625 -0.046875 5.375 -0.28125q2.734375 -0.234375 4.65625 -0.8125q0.28125 -1.34375 0.375 -2.875q0.109375 -1.546875 0.109375 -2.890625q-0.09375 -5.1875 -1.203125 -7.34375q-1.109375 -2.15625 -4.265625 -2.15625q-1.640625 0 -3.125 0.921875q-1.484375 0.90625 -2.640625 3.15625q-1.15625 2.25 -1.78125 6.1875q-0.625 3.9375 -0.625 10.078121q0 4.515625 0.53125 7.5q0.53125 2.96875 1.625 4.609375q1.109375 1.625 2.78125 2.34375q1.6875 0.71875 4.09375 0.71875q2.875 0 5.703125 -0.765625q2.84375 -0.765625 5.140625 -2.203125q0.484375 1.140625 0.625 2.640625q0.140625 1.484375 0.140625 2.640625q0 1.4375 -1.828125 2.6875q-1.8125 1.234375 -4.84375 1.90625q-3.015625 0.671875 -6.671875 0.671875zm32.935028 0q-2.6875 0 -5.1406555 -0.4375q-2.453125 -0.421875 -4.375 -1.90625q-1.90625 -1.484375 -3.0625 -4.359375q-1.15625 -2.890625 -1.15625 -7.875q0 -5.0 1.046875 -8.109375q1.0625 -3.1249962 2.890625 -4.796871q1.828125 -1.6875 4.125 -2.265625q2.3125305 -0.578125 4.7031555 -0.578125q1.546875 0 3.609375 0.296875q2.0625 0.28125 3.5 0.953125q0 0 0 -1.34375q0 -1.34375 0 -3.125q0 -1.78125 0 -3.125q0 -2.296875 -0.71875 -3.5q-0.71875 -1.203125 -2.015625 -1.71875q-1.296875 -0.53125 -3.21875 -0.53125q-3.75 0 -7.2031555 0.671875q-3.453125 0.671875 -5.5625 1.53125q-0.671875 -1.15625 -0.875 -2.34375q-0.1875 -1.203125 -0.1875 -2.171875q0 -0.671875 0.234375 -1.4375q0.25 -0.765625 0.828125 -1.15625q1.25 -0.765625 5.1875 -1.671875q3.9375305 -0.90625 9.4062805 -0.90625q6.234375 0 9.0625 2.59375q2.84375 2.578125 2.84375 9.109375l0 5.09375q0 5.46875 -0.046875 10.999996q-0.046875 5.515625 -0.15625 10.359375q-0.09375 4.84375 -0.375 8.5q-1.921875 1.140625 -5.28125 2.203125q-3.359375 1.046875 -8.0625 1.046875zm0.765625 -6.515625q1.53125 0 2.96875 -0.484375q1.453125 -0.484375 2.015625 -1.15625q0.203125 -1.53125 0.25 -4.21875q0.046875 -2.6875 0.09375 -5.65625q0.046875 -2.984375 0.046875 -5.578125q-0.953125 -0.484375 -2.25 -0.671875q-1.296875 -0.1875 -2.265625 -0.1875q-1.53125 0 -2.828125 0.34375q-1.296875 0.328125 -2.265625 1.34375q-0.9531555 1.0 -1.5312805 2.921875q-0.578125 1.921875 -0.578125 5.078125q0 2.59375 0.4375 4.234375q0.4375 1.625 1.296875 2.546875q0.8594055 0.90625 2.0156555 1.203125q1.15625 0.28125 2.59375 0.28125zm21.124573 5.5625l0 -45.79687q3.15625 -1.4375 6.84375 -2.296875q3.703125 -0.859375 7.640625 -0.859375q5.671875 0 8.265625 2.5q2.59375 2.484375 3.3125 7.09375q0.71875 4.609375 0.71875 11.046875l0 26.781246q0 0.765625 -0.390625 1.0625q-0.375 0.28125 -2.015625 0.375q-1.625 0.09375 -5.375 0.09375l0 -35.718746q0 -2.390625 -0.25 -3.78125q-0.234375 -1.390625 -1.25 -2.015625q-1.0 -0.625 -3.203125 -0.625q-1.625 0 -3.21875 0.390625q-1.578125 0.375 -3.3125 1.234375l0 38.98437q0 0.765625 -0.390625 1.0625q-0.375 0.28125 -1.96875 0.375q-1.578125 0.09375 -5.40625 0.09375zm19.0 0l0 -41.85937q0.859375 -2.109375 3.40625 -3.6875q2.546875 -1.59375 5.953125 -2.5q3.40625 -0.90625 6.578125 -0.90625q4.796875 0 7.09375 1.578125q2.3125 1.578125 2.984375 4.609375q0.671875 3.015625 0.671875 7.34375l0 33.89062q0 0.765625 -0.390625 1.0625q-0.375 0.28125 -2.015625 0.375q-1.625 0.09375 -5.359375 0.09375l0 -35.51562q0 -3.453125 -0.921875 -4.984375q-0.90625 -1.546875 -3.796875 -1.546875q-1.53125 0 -3.171875 0.390625q-1.625 0.375 -3.25 1.4375l0 38.687496q0 0.765625 -0.296875 1.0625q-0.28125 0.28125 -1.921875 0.375q-1.625 0.09375 -5.5625 0.09375zm45.7959 0.953125q-5.09375 0 -8.40625 -1.1875q-3.3125 -1.203125 -3.3125 -3.703125q0 -0.859375 0.28125 -2.0625q0.296875 -1.203125 1.0625 -2.453125q2.125 1.25 4.46875 1.828125q2.359375 0.578125 5.140625 0.578125q3.640625 0 5.703125 -1.484375q2.0625 -1.5 2.0625 -4.46875q0 -1.921875 -0.8125 -3.734375q-0.8125 -1.828125 -3.015625 -3.75l-9.3125 -7.968746q-3.265625 -2.6875 -4.375 -5.234375q-1.109375 -2.546875 -1.109375 -4.9375q0 -3.359375 1.6875 -5.90625q1.6875 -2.546875 5.1875 -3.984375q3.5 -1.4375 8.78125 -1.4375q4.984375 0 7.53125 0.953125q2.546875 0.953125 3.546875 2.15625q1.015625 1.203125 1.015625 2.265625q0 2.015625 -1.734375 3.9375q-2.109375 -1.34375 -4.421875 -1.921875q-2.296875 -0.578125 -4.984375 -0.578125q-3.453125 0 -5.515625 1.203125q-2.0625 1.1875 -2.0625 3.40625q0 1.25 0.71875 2.59375q0.71875 1.34375 3.125 3.359375l8.921875 7.187496q3.171875 2.984375 4.421875 5.671875q1.25 2.6875 1.25 6.328125q0 6.34375 -4.234375 9.84375q-4.21875 3.5 -11.609375 3.5z" fill-rule="nonzero"/><path fill="#b673ff" d="m18.483309 45.21148l17.753134 23.352661l55.449623 -23.352661z" fill-rule="evenodd"/><g filter="url(#shadowFilter-p.2)"><use xlink:href="#p.2" transform="matrix(1.0 0.0 0.0 1.0 10.0 0.0)"/></g><defs><filter id="shadowFilter-p.2" filterUnits="userSpaceOnUse"><feGaussianBlur in="SourceAlpha" stdDeviation="2.5" result="blur"/><feComponentTransfer in="blur" color-interpolation-filters="sRGB"><feFuncR type="linear" slope="0" intercept="0.2627451"/><feFuncG type="linear" slope="0" intercept="0.2627451"/><feFuncB type="linear" slope="0" intercept="0.2627451"/><feFuncA type="linear" slope="0.7" intercept="0"/></feComponentTransfer></filter></defs><g id="p.2"><path fill="#36d6d8" d="m3.1453156 68.92639l14.616938 -23.870354l74.45657 0.097595215z" fill-rule="evenodd"/></g><path fill="#b673ff" d="m14.103748 78.663246l12.545908 16.774872l39.185524 -16.774872z" fill-rule="evenodd"/><g filter="url(#shadowFilter-p.3)"><use xlink:href="#p.3" transform="matrix(1.0 0.0 0.0 1.0 10.0 0.0)"/></g><defs><filter id="shadowFilter-p.3" filterUnits="userSpaceOnUse"><feGaussianBlur in="SourceAlpha" stdDeviation="2.5" result="blur"/><feComponentTransfer in="blur" color-interpolation-filters="sRGB"><feFuncR type="linear" slope="0" intercept="0.2627451"/><feFuncG type="linear" slope="0" intercept="0.2627451"/><feFuncB type="linear" slope="0" intercept="0.2627451"/><feFuncA type="linear" slope="0.7" intercept="0"/></feComponentTransfer></filter></defs><g id="p.3"><path fill="#36d6d8" d="m3.2645893 95.69833l10.329598 -17.146744l52.61749 0.07010651z" fill-rule="evenodd"/></g></g></svg>